<?xml version="1.0" standalone="no"?>
<!DOCTYPE svg PUBLIC "-//W3C//DTD SVG 20010904//EN"
 "http://www.w3.org/TR/2001/REC-SVG-20010904/DTD/svg10.dtd">
<svg version="1.0" xmlns="http://www.w3.org/2000/svg"
 width="700.000000pt" height="700.000000pt" viewBox="0 0 700.000000 700.000000"
 preserveAspectRatio="xMidYMid meet">
<metadata>
Created by potrace 1.11, written by Peter Selinger 2001-2013
</metadata>
<g transform="translate(0.000000,700.000000) scale(0.100000,-0.100000)"
fill="#000000" stroke="none">
<path d="M3385 6690 c-33 -9 -76 -25 -95 -35 -289 -150 -531 -600 -699 -1295
-16 -69 -33 -142 -37 -163 -8 -46 9 -47 -199 16 -133 41 -324 90 -395 103 -14
3 -70 13 -125 24 -55 10 -136 22 -180 25 -44 4 -83 9 -86 11 -8 5 -259 5 -319
0 -65 -5 -152 -23 -224 -45 -188 -58 -323 -197 -355 -366 -10 -54 -8 -182 4
-230 46 -186 116 -328 269 -543 115 -161 199 -257 428 -484 121 -120 216 -218
211 -218 -14 -1 -221 -198 -343 -327 -108 -115 -124 -133 -258 -298 -50 -62
-170 -254 -212 -340 -85 -175 -111 -276 -105 -415 6 -178 98 -318 261 -399 76
-37 177 -68 251 -76 32 -4 72 -9 88 -11 38 -5 250 -5 290 0 17 2 59 7 95 11
78 8 174 22 210 30 3 1 25 5 50 9 97 17 302 69 445 113 196 60 195 60 195 37
0 -28 76 -334 111 -449 44 -144 94 -286 136 -383 173 -402 383 -640 608 -688
293 -62 558 156 775 637 86 190 157 406 229 694 16 66 33 141 36 166 l7 46
121 -39 c210 -67 535 -144 692 -163 28 -4 61 -9 75 -12 44 -9 413 -12 460 -3
25 4 61 11 82 14 108 17 241 82 317 156 257 250 156 665 -292 1200 -43 52
-174 188 -289 303 -115 114 -206 207 -201 207 24 1 341 316 473 470 100 118
99 117 156 196 376 518 388 915 34 1111 -76 43 -192 73 -330 88 -138 14 -408
0 -565 -31 -11 -2 -31 -6 -45 -9 -173 -32 -314 -67 -513 -127 -92 -28 -169
-49 -170 -47 -2 2 -23 87 -46 189 -24 102 -52 212 -62 245 -11 33 -23 74 -28
90 -72 242 -191 503 -308 677 -182 271 -409 390 -628 328z m239 -210 c183 -92
377 -419 515 -867 62 -204 135 -513 123 -524 -4 -4 -45 -21 -92 -39 -123 -46
-395 -163 -539 -231 -86 -41 -131 -57 -145 -53 -12 4 -68 29 -126 56 -151 72
-385 173 -508 220 -59 22 -110 43 -114 47 -4 3 -3 26 2 51 60 299 165 639 261
845 18 39 33 72 33 75 4 18 89 158 137 226 79 111 160 180 244 212 50 19 153
10 209 -18z m-2023 -1305 c30 -3 68 -8 84 -10 28 -3 80 -12 205 -34 60 -10
266 -59 290 -68 8 -3 24 -8 35 -10 11 -2 31 -7 45 -12 14 -5 72 -24 130 -42
58 -17 108 -35 112 -38 3 -3 2 -31 -3 -61 -13 -84 -17 -109 -28 -195 -25 -188
-37 -293 -46 -420 -7 -87 -15 -158 -18 -160 -111 -71 -397 -281 -575 -423
l-93 -74 -32 28 c-411 375 -641 651 -773 929 -104 219 -102 381 7 479 21 19
56 44 78 56 51 26 180 56 251 59 30 1 56 4 58 6 5 5 211 -2 273 -10z m4129 4
c398 -34 511 -244 328 -612 -135 -271 -407 -597 -760 -906 l-38 -33 -72 59
c-146 119 -434 330 -595 438 -4 2 -11 65 -18 160 -3 50 -8 106 -10 125 -18
148 -22 184 -30 255 -4 33 -15 112 -25 175 -14 86 -15 117 -7 122 13 9 157 55
287 91 210 60 457 109 620 123 41 3 76 7 77 8 6 5 156 2 243 -5z m-2945 -320
c91 -35 378 -158 449 -192 l48 -23 -64 -34 c-156 -83 -512 -288 -557 -322 -13
-10 -28 -18 -33 -18 -9 0 -5 92 7 180 5 34 9 69 20 175 3 28 8 61 11 75 5 27
11 68 21 143 3 26 9 47 12 47 3 0 42 -14 86 -31z m1530 -21 c4 -29 8 -60 10
-68 3 -18 16 -115 20 -151 3 -30 15 -131 20 -174 2 -16 7 -65 10 -107 l6 -77
-94 59 c-103 64 -381 225 -494 285 -40 21 -71 40 -70 42 7 6 318 142 407 177
52 21 109 44 125 51 47 22 52 18 60 -37z m-678 -371 c85 -43 101 -52 307 -171
195 -112 192 -110 337 -202 110 -70 119 -78 120 -107 0 -18 2 -63 4 -102 5
-93 5 -714 0 -790 -2 -33 -4 -72 -4 -86 -1 -23 -16 -37 -93 -87 -194 -124
-538 -322 -731 -420 l-78 -39 -97 50 c-105 54 -377 206 -457 255 -27 17 -75
45 -105 63 -30 17 -97 58 -147 91 -92 59 -93 61 -94 102 -1 22 -3 64 -5 91 -4
63 -4 715 0 775 2 25 4 64 5 87 l1 42 118 75 c203 128 488 292 702 403 85 44
68 47 217 -30z m-1242 -966 c0 -250 -3 -377 -10 -373 -89 53 -485 357 -485
372 0 10 149 129 295 236 99 73 198 144 199 144 1 0 1 -171 1 -379z m2300 315
c100 -71 258 -190 342 -258 l73 -59 -74 -59 c-86 -68 -369 -279 -406 -302
l-25 -15 0 377 c0 250 3 376 10 372 6 -3 42 -28 80 -56z m-2856 -524 c117 -95
285 -220 446 -332 66 -45 121 -84 123 -85 1 -1 4 -22 6 -46 13 -124 16 -160
22 -232 3 -43 7 -87 9 -98 2 -11 7 -48 10 -82 7 -73 33 -257 44 -307 14 -69
13 -70 -79 -100 -105 -35 -298 -91 -325 -95 -11 -2 -29 -6 -40 -8 -299 -76
-605 -108 -805 -86 -223 26 -345 101 -386 239 -21 70 11 245 61 340 14 25 29
56 35 70 11 25 14 31 59 105 83 137 255 346 432 525 109 110 279 270 288 270
2 0 47 -35 100 -78z m3498 12 c366 -328 641 -672 754 -943 119 -286 30 -470
-256 -527 -138 -27 -422 -22 -600 12 -11 2 -47 9 -80 14 -96 17 -228 49 -395
96 -236 68 -265 79 -263 100 3 36 13 110 18 133 6 33 27 196 40 316 10 86 13
127 20 215 9 120 14 153 26 160 86 54 468 336 579 427 41 35 77 63 79 63 2 0
37 -30 78 -66z m-2697 -584 c4 0 57 -30 116 -67 108 -66 384 -223 477 -272
l49 -25 -48 -23 c-119 -57 -516 -223 -535 -223 -4 0 -9 19 -12 43 -3 23 -12
92 -21 152 -8 61 -17 135 -21 165 -3 30 -8 66 -10 80 -7 44 -15 195 -9 183 3
-7 9 -13 14 -13z m1735 -67 c-3 -43 -8 -89 -10 -103 -2 -14 -7 -50 -10 -80
-14 -129 -45 -352 -51 -359 -6 -7 -173 61 -432 174 l-153 68 30 18 c16 10 56
32 88 49 58 31 90 49 193 107 30 17 118 69 195 116 77 47 144 86 148 86 4 1 5
-34 2 -76z m-738 -474 c154 -73 345 -156 508 -219 133 -53 127 -45 106 -141
-116 -518 -249 -864 -422 -1106 -266 -369 -544 -282 -804 252 -57 118 -151
360 -175 453 -5 20 -23 89 -40 152 -16 63 -32 124 -34 135 -3 11 -14 60 -25
110 -11 49 -17 93 -13 96 4 4 45 21 92 39 116 44 378 156 535 229 72 34 133
61 137 61 4 0 65 -27 135 -61z"/>
<path d="M3401 3894 c-189 -50 -313 -216 -306 -409 5 -123 58 -227 155 -304
235 -185 583 -59 648 236 23 101 -6 236 -68 322 -94 129 -276 195 -429 155z
m184 -38 c118 -31 197 -95 245 -198 88 -190 10 -402 -180 -492 -56 -26 -76
-30 -150 -30 -74 0 -93 4 -152 31 -228 107 -287 404 -116 583 54 56 108 88
176 104 74 18 115 19 177 2z"/>
</g>
</svg>
